<svg width="94" height="97" viewBox="0 0 94 97" fill="none" xmlns="http://www.w3.org/2000/svg">
<path d="M21.7518 35.1928C19.9442 33.7852 17.3231 34.1054 15.909 35.9071C15.4243 36.5247 15.5346 37.4189 16.1542 37.902C16.4146 38.1047 16.7244 38.2032 17.0304 38.2032C17.4543 38.2032 17.8744 38.0157 18.1557 37.6576C18.6004 37.0892 19.4272 36.9888 19.9956 37.4322C20.6152 37.9153 21.5123 37.8054 21.997 37.1878C22.4836 36.5682 22.3734 35.6759 21.7518 35.1928Z" fill="#FF699F"/>
<path d="M36.6325 35.3955C37.1172 34.7779 37.007 33.8837 36.3874 33.4006C34.5779 31.9929 31.9587 32.3131 30.5445 34.1148C30.0599 34.7324 30.1701 35.6267 30.7897 36.1098C31.0501 36.3125 31.36 36.411 31.666 36.411C32.0898 36.411 32.5099 36.2234 32.7893 35.8654C33.2341 35.297 34.059 35.1966 34.6292 35.6399C35.2526 36.123 36.1479 36.0131 36.6325 35.3955Z" fill="#FF699F"/>
<path d="M22.2631 45.8495C22.6851 49.2786 25.827 51.7245 29.2673 51.3039C32.7076 50.8833 35.1614 47.7517 34.7394 44.3226L34.5779 43.0021C34.5075 42.4318 34.2186 41.9203 33.7625 41.566C33.3082 41.2117 32.7418 41.0564 32.1678 41.1246L23.9814 42.1268C23.4093 42.1969 22.8961 42.4849 22.5425 42.9395C22.1871 43.3923 22.0293 43.9569 22.0997 44.5291L22.2631 45.8495ZM31.8313 44.0308L31.9093 44.6693C32.1392 46.5429 30.7992 48.2537 28.9194 48.4829C27.0415 48.7141 25.3233 47.3765 25.0933 45.5028L25.0154 44.8644L31.8313 44.0308Z" fill="#FF699F"/>
<path d="M46.2863 15.1581C46.674 12.1515 46.2331 9.09374 45.0413 6.54939C43.6424 3.56171 41.2608 1.33185 38.1569 0.100404C37.4746 -0.170514 36.6972 0.121244 36.3626 0.771068C34.8288 3.74548 31.1243 5.86357 26.4523 6.43572L18.207 7.4455C17.4258 7.54023 16.8689 8.25068 16.9658 9.02933C17.0609 9.80798 17.7736 10.3612 18.5548 10.2665L26.7982 9.25667C31.8142 8.64285 35.9616 6.43003 38.1892 3.24343C42.8365 5.71579 43.9636 10.8992 43.4599 14.7963C42.9353 18.8468 40.7989 21.8932 38.2634 22.2039L10.5262 25.597C8.22441 25.8793 6.58029 27.9746 6.8635 30.2689L7.20373 33.0349L5.04261 33.3002L2.87769 15.7227C2.76365 14.7925 3.01835 13.8718 3.59807 13.1329C4.17778 12.394 5.0103 11.9242 5.94545 11.8086L12.8641 10.9618C13.6453 10.8651 14.2022 10.1566 14.1052 9.37792C14.0102 8.59927 13.2974 8.04607 12.5162 8.14079L5.59762 8.98765C2.1098 9.41581 -0.380137 12.591 0.0475247 16.0675L2.28657 34.238C0.842025 35.2648 0.0285175 37.0229 0.254703 38.836C0.558818 41.2951 2.65911 43.1479 5.13955 43.1479C5.33342 43.1479 5.5349 43.1366 5.74588 43.1101L8.40498 42.7842L8.66538 44.9004C9.21279 49.3374 11.4594 53.2969 14.9929 56.0478C17.9751 58.3705 21.5713 59.5982 25.2948 59.5982C25.9847 59.5982 26.6785 59.5565 27.3741 59.4712C29.522 59.2079 31.5614 58.5505 33.4374 57.518C35.2526 56.5195 36.8511 55.2085 38.1854 53.6209C38.691 53.0203 38.6131 52.1242 38.0087 51.6184C37.4061 51.1144 36.5071 51.1921 35.9996 51.7946C34.8915 53.1113 33.5648 54.2006 32.0575 55.0285C30.5027 55.8849 28.8092 56.4305 27.0244 56.6484C23.3294 57.1012 19.68 56.0914 16.7472 53.8066C13.8144 51.5218 11.9479 48.2348 11.4936 44.5518L11.0584 41.0242C11.0128 40.651 10.8189 40.3099 10.5205 40.0769C10.2221 39.8439 9.84383 39.7397 9.46938 39.787L5.40185 40.2872C5.30871 40.2986 5.21938 40.3043 5.13765 40.3043C4.09415 40.3043 3.21032 39.5218 3.08107 38.4855C2.96703 37.561 3.48972 36.6686 4.35455 36.3182C4.35645 36.3182 4.35645 36.3163 4.35835 36.3163C4.52562 36.2481 4.70428 36.2007 4.88865 36.178L8.96379 35.6797C9.74499 35.585 10.3 34.8745 10.205 34.0959L9.68987 29.9184C9.59863 29.1796 10.1289 28.5032 10.8702 28.4123L37.1914 25.1916L39.1605 41.1663C39.419 43.2521 39.2099 45.3115 38.5409 47.2913C38.29 48.0358 38.691 48.841 39.4361 49.0911C39.5863 49.1422 39.7402 49.165 39.8923 49.165C40.4872 49.165 41.0422 48.7899 41.2437 48.1988C42.0515 45.8135 42.3024 43.3298 41.9926 40.8196L40.0044 24.6876C43.2223 23.5509 45.6705 19.9172 46.2863 15.1581Z" fill="#FF699F"/>
<path d="M74.0025 74.8302C74.5728 74.3869 75.3977 74.4873 75.8424 75.0557C76.1237 75.4137 76.5438 75.6013 76.9677 75.6013C77.2737 75.6013 77.5835 75.5028 77.8439 75.3C78.4635 74.8169 78.5738 73.9246 78.0891 73.3051C76.6768 71.5015 74.0558 71.1813 72.2463 72.5909C71.6266 73.074 71.5164 73.9663 72.0011 74.5858C72.4858 75.2053 73.381 75.3133 74.0025 74.8302Z" fill="#FF699F"/>
<path d="M57.6126 70.8006C56.993 71.2837 56.8828 72.176 57.3675 72.7955C57.8521 73.4132 58.7474 73.523 59.3689 73.0399C59.9391 72.5966 60.764 72.697 61.2088 73.2654C61.4901 73.6235 61.9083 73.811 62.334 73.811C62.64 73.811 62.9499 73.7125 63.2103 73.5098C63.8299 73.0267 63.9401 72.1344 63.4554 71.5148C62.0432 69.7131 59.4221 69.393 57.6126 70.8006Z" fill="#FF699F"/>
<path d="M70.0187 79.5287L61.8323 78.5265C61.2601 78.4564 60.6937 78.6136 60.2376 78.9679C59.2131 79.7655 59.4526 80.8378 59.2606 81.7244C58.5744 87.2887 65.0027 90.8239 69.3686 87.4251C71.9916 85.3828 71.7293 82.5656 71.9004 81.9309C72.0448 80.7506 71.2009 79.6726 70.0187 79.5287ZM67.6123 85.1838C66.8901 85.7465 65.9891 85.9947 65.0787 85.8848C63.1951 85.6537 61.857 83.9486 62.0889 82.0692L62.1668 81.4308L68.9847 82.2644C68.9029 82.5675 69.0284 84.0812 67.6123 85.1838Z" fill="#FF699F"/>
<path d="M92.6486 48.7823C91.5994 47.4447 90.0921 46.5941 88.4024 46.3876L68.8136 43.991C68.0818 43.902 67.4147 43.506 66.9794 42.9036C65.6223 41.028 63.7786 39.573 61.6441 38.6958C60.9161 38.3965 60.0836 38.7413 59.7833 39.4669C59.483 40.1925 59.8289 41.0223 60.5569 41.3216C62.1991 41.9961 63.6189 43.1176 64.6643 44.5651C65.5615 45.806 66.9471 46.6263 68.4639 46.8101L88.0527 49.2067C89.98 49.4435 91.3561 51.1978 91.1204 53.1189L88.9555 70.6982L86.7944 70.433L87.1346 67.6651C87.4178 65.3708 85.7737 63.2736 83.4719 62.9932L55.7367 59.602C53.1308 59.2837 50.8271 57.9537 49.2495 55.8603C47.6738 53.7668 47.039 51.1883 47.459 48.5985C48.1376 44.4343 51.5551 41.1719 55.7728 40.6661C56.554 40.5733 57.1128 39.8647 57.0177 39.0861C56.9246 38.3074 56.2137 37.7504 55.4326 37.8452C49.9623 38.5007 45.526 42.7349 44.6441 48.1438C44.0967 51.5047 44.9216 54.8505 46.9687 57.5672C48.7268 59.9013 51.1825 61.5003 53.9842 62.169L52.0056 78.2252C51.7414 80.3641 51.8877 82.4974 52.4408 84.5643C52.61 85.2009 53.1878 85.6195 53.8169 85.6195C53.9386 85.6195 54.0621 85.6044 54.1838 85.5722C54.9441 85.3695 55.3983 84.5927 55.195 83.833C54.7369 82.1166 54.6152 80.3471 54.8357 78.57L56.8049 62.5972L83.126 65.8179C83.8673 65.9088 84.3976 66.5852 84.3063 67.3241L83.7913 71.5015C83.7456 71.8747 83.8502 72.2517 84.0821 72.5492C84.3159 72.8466 84.6561 73.038 85.0324 73.0853L89.1076 73.5836C89.2805 73.6044 89.4478 73.6499 89.6075 73.7105C90.4951 74.0515 91.0311 74.942 90.9151 75.8892C90.7878 76.9255 89.904 77.708 88.8586 77.708C88.7768 77.708 88.6894 77.7023 88.602 77.6928L84.5268 77.1927C84.1505 77.1472 83.7741 77.2514 83.4757 77.4825C83.1773 77.7137 82.9854 78.0547 82.9378 78.4298L82.5026 81.9574C82.0483 85.6404 80.1837 88.9274 77.249 91.2122C74.3162 93.497 70.6668 94.5068 66.9699 94.054C65.0312 93.8172 63.2027 93.1958 61.5377 92.2049C59.9258 91.2482 58.5459 89.9959 57.4321 88.486C56.9664 87.8532 56.0731 87.7168 55.4401 88.181C54.8053 88.6451 54.6685 89.5355 55.1341 90.1664C56.4741 91.9852 58.1373 93.4913 60.0779 94.6432C62.087 95.8368 64.288 96.587 66.624 96.8712C67.3196 96.9564 68.0134 96.9981 68.7034 96.9981C72.4269 96.9981 76.023 95.7704 79.0052 93.4477C82.5387 90.695 84.7853 86.7373 85.3327 82.3003L85.5931 80.1841C88.1382 80.4854 88.3359 80.5479 88.8586 80.5479C91.339 80.5479 93.4412 78.6931 93.7434 76.234C93.9696 74.4001 93.1618 72.6534 91.7115 71.6322L93.9487 53.4656C94.1597 51.7832 93.6959 50.1198 92.6486 48.7823Z" fill="#FF699F"/>
<path d="M72.4668 18.2386C73.2537 18.2386 73.8923 17.602 73.8923 16.8177V13.3394C73.8923 12.555 73.2537 11.9185 72.4668 11.9185C71.6799 11.9185 71.0412 12.555 71.0412 13.3394V16.8177C71.0412 17.602 71.678 18.2386 72.4668 18.2386Z" fill="#FF699F"/>
<path d="M72.4668 28.9314C73.2537 28.9314 73.8923 28.2949 73.8923 27.5105V24.0322C73.8923 23.2478 73.2537 22.6113 72.4668 22.6113C71.6799 22.6113 71.0412 23.2478 71.0412 24.0322V27.5105C71.0412 28.2949 71.678 28.9314 72.4668 28.9314Z" fill="#FF699F"/>
<path d="M76.0857 21.8458H79.5754C80.3623 21.8458 81.001 21.2092 81.001 20.4249C81.001 19.6405 80.3623 19.004 79.5754 19.004H76.0857C75.2988 19.004 74.6602 19.6405 74.6602 20.4249C74.6602 21.2092 75.2969 21.8458 76.0857 21.8458Z" fill="#FF699F"/>
<path d="M65.3581 21.8458H68.8478C69.6347 21.8458 70.2734 21.2092 70.2734 20.4249C70.2734 19.6405 69.6347 19.004 68.8478 19.004H65.3581C64.5712 19.004 63.9326 19.6405 63.9326 20.4249C63.9326 21.2092 64.5712 21.8458 65.3581 21.8458Z" fill="#FF699F"/>
<path d="M21.5332 68.0686C20.7463 68.0686 20.1077 68.7052 20.1077 69.4895V72.9679C20.1077 73.7522 20.7463 74.3888 21.5332 74.3888C22.3201 74.3888 22.9588 73.7522 22.9588 72.9679V69.4895C22.9588 68.7033 22.3201 68.0686 21.5332 68.0686Z" fill="#FF699F"/>
<path d="M21.5332 78.7595C20.7463 78.7595 20.1077 79.396 20.1077 80.1804V83.6587C20.1077 84.4431 20.7463 85.0796 21.5332 85.0796C22.3201 85.0796 22.9588 84.4431 22.9588 83.6587V80.1804C22.9588 79.396 22.3201 78.7595 21.5332 78.7595Z" fill="#FF699F"/>
<path d="M28.6419 75.1523H25.1522C24.3653 75.1523 23.7267 75.7889 23.7267 76.5732C23.7267 77.3576 24.3653 77.9941 25.1522 77.9941H28.6419C29.4288 77.9941 30.0675 77.3576 30.0675 76.5732C30.0675 75.7889 29.4288 75.1523 28.6419 75.1523Z" fill="#FF699F"/>
<path d="M17.9143 75.1523H14.4246C13.6377 75.1523 12.999 75.7889 12.999 76.5732C12.999 77.3576 13.6377 77.9941 14.4246 77.9941H17.9143C18.7012 77.9941 19.3398 77.3576 19.3398 76.5732C19.3398 75.7889 18.7012 75.1523 17.9143 75.1523Z" fill="#FF699F"/>
</svg>
