<svg width="71" height="75" viewBox="0 0 71 75" fill="none" xmlns="http://www.w3.org/2000/svg">
<g clip-path="url(#clip0)">
<path d="M21.1254 71.2062H8.53552V3.11283C8.53552 1.82878 9.58306 0.778198 10.8634 0.778198H60.1366C61.4169 0.778198 62.4645 1.82878 62.4645 3.11283V71.2062H49.991" stroke="#FF699F" stroke-width="2.8" stroke-miterlimit="10"/>
<path d="M21.0051 71.2062H15.8101V9.54473C15.8101 8.70232 16.4988 8.01166 17.3388 8.01166H53.6613C54.5012 8.01166 55.1899 8.70232 55.1899 9.54473V71.2062H50.0259" stroke="#FF699F" stroke-width="2.8" stroke-miterlimit="10"/>
<path d="M48.9648 74.2218H22.0352C21.4901 74.2218 21.0478 73.7782 21.0478 73.2315V69.179C21.0478 68.6323 21.4901 68.1887 22.0352 68.1887H48.9667C49.5118 68.1887 49.9541 68.6323 49.9541 69.179V73.2315C49.9522 73.7782 49.5099 74.2218 48.9648 74.2218Z" stroke="#FF699F" stroke-width="2.8" stroke-miterlimit="10"/>
<path d="M39.9443 23.0117H31.0557C30.6425 23.0117 30.3088 22.677 30.3088 22.2626V17.7296C30.3088 17.3152 30.6425 16.9805 31.0557 16.9805H39.9443C40.3575 16.9805 40.6911 17.3152 40.6911 17.7296V22.2626C40.6911 22.677 40.3575 23.0117 39.9443 23.0117Z" stroke="#FF699F" stroke-width="2.8" stroke-miterlimit="10"/>
<path d="M46.5341 49.7743V37.2977C46.5341 36.9222 46.8387 36.6168 47.2131 36.6168H51.1666C51.541 36.6168 51.8455 36.9222 51.8455 37.2977V49.7743C51.8455 50.1498 51.541 50.4553 51.1666 50.4553H47.2131C46.8367 50.4553 46.5341 50.1498 46.5341 49.7743Z" stroke="#FF699F" stroke-width="2.8" stroke-miterlimit="10"/>
<path d="M8.53553 71.2062H1.37152C1.04174 71.2062 0.77597 70.9378 0.77597 70.609V64.0234C0.77597 63.6926 1.04368 63.4261 1.37152 63.4261H7.93805C8.26783 63.4261 8.53359 63.6946 8.53359 64.0234V71.2062H8.53553Z" stroke="#FF699F" stroke-width="2.8" stroke-miterlimit="10"/>
<path d="M69.4578 71.2062H62.4645V64.1926C62.4645 63.7685 62.8078 63.4241 63.2307 63.4241H69.4578C69.8807 63.4241 70.2241 63.7685 70.2241 64.1926V70.4377C70.2241 70.8619 69.8807 71.2062 69.4578 71.2062Z" stroke="#FF699F" stroke-width="2.8" stroke-miterlimit="10"/>
<path d="M35.5 30.7354C36.6239 30.7354 37.535 29.8217 37.535 28.6945C37.535 27.5674 36.6239 26.6537 35.5 26.6537C34.3761 26.6537 33.4651 27.5674 33.4651 28.6945C33.4651 29.8217 34.3761 30.7354 35.5 30.7354Z" stroke="#FF699F" stroke-width="2.8" stroke-miterlimit="10"/>
</g>
<defs>
<clipPath id="clip0">
<rect width="71" height="75" fill="white"/>
</clipPath>
</defs>
</svg>
