<svg width="84" height="84" viewBox="0 0 84 84" fill="none" xmlns="http://www.w3.org/2000/svg">
<path d="M82.3594 33.879H68.9062V30.4058C68.9062 29.5001 68.1712 28.7651 67.2656 28.7651H31.8281C30.9225 28.7651 30.1875 29.5001 30.1875 30.4058C30.1875 31.3114 30.9225 32.0464 31.8281 32.0464H65.625V44.6251C65.625 55.6747 59.7253 65.9433 50.1998 71.5313H18.7064C9.18094 65.9433 3.28125 55.6747 3.28125 44.6251V32.0464H14.2734C15.1791 32.0464 15.9141 31.3114 15.9141 30.4058C15.9141 29.5001 15.1791 28.7651 14.2734 28.7651H1.64062C0.735 28.7651 0 29.5001 0 30.4058V44.6251C0 50.8266 1.66688 56.9068 4.82016 62.2093C6.94641 65.7858 9.70594 68.9424 12.938 71.5313H1.64062C0.735 71.5313 0 72.2663 0 73.1719C0 79.1422 4.85789 84.0001 10.8281 84.0001H62.0156C67.9859 84.0001 72.8438 79.1422 72.8438 73.1719C72.8438 72.2663 72.1087 71.5313 71.2031 71.5313H55.9683C58.9427 69.1491 61.5152 66.2846 63.5644 63.0542H68.1959C76.9109 63.0542 84 55.9651 84 47.2501V35.5196C84 34.614 83.265 33.879 82.3594 33.879ZM62.0156 80.7188H10.8281C7.23023 80.7188 4.21148 78.1873 3.46172 74.8126H18.2667H50.6395H69.382C68.6323 78.1873 65.6135 80.7188 62.0156 80.7188ZM68.9062 43.7227H74.1562V47.2501C74.1562 50.5362 71.482 53.2104 68.1959 53.2104H67.8234C68.5387 50.4197 68.9062 47.5355 68.9062 44.6251V43.7227ZM80.7188 47.2501C80.7188 54.1554 75.1012 59.7729 68.1959 59.7729H65.4035C65.9269 58.7033 66.3961 57.6073 66.8046 56.4917H68.1959C73.2916 56.4917 77.4375 52.3458 77.4375 47.2501V42.0821C77.4375 41.1765 76.7025 40.4415 75.7969 40.4415H68.9062V37.1602H80.7188V47.2501Z" fill="#FF699F"/>
<path d="M33.4523 11.1235C35.0897 13.1792 35.093 16.0519 33.4589 18.1109L32.5844 19.2134C32.0217 19.9238 32.1398 20.9558 32.8502 21.5185C33.1521 21.758 33.5114 21.8745 33.8691 21.8745C34.353 21.8745 34.8321 21.6612 35.1553 21.2544L36.0298 20.1519C38.6187 16.8903 38.6154 12.3376 36.0199 9.07928L35.1668 8.00795C33.9134 6.4346 33.9117 4.23616 35.1619 2.66116C35.7246 1.95077 35.6065 0.918813 34.8961 0.356079C34.1857 -0.206655 33.1537 -0.0885304 32.591 0.62186C30.386 3.40108 30.3893 7.27952 32.5992 10.0538L33.4523 11.1235Z" fill="#FF699F"/>
<path d="M42.5463 14.8133C44.1837 16.869 44.1853 19.7433 42.5529 21.8023L41.6784 22.9048C41.1157 23.6152 41.2338 24.6472 41.9442 25.2099C42.2461 25.4494 42.6054 25.5659 42.9631 25.5659C43.447 25.5659 43.9261 25.3526 44.2493 24.9458L45.1238 23.8433C47.7127 20.5817 47.7094 16.029 45.1139 12.7707L44.2608 11.6994C43.0073 10.126 43.0057 7.92756 44.2559 6.35256C44.8186 5.64217 44.7005 4.61022 43.9901 4.04749C43.2797 3.48475 42.2477 3.60288 41.685 4.31327C39.48 7.09249 39.4833 10.9709 41.6932 13.7452L42.5463 14.8133Z" fill="#FF699F"/>
<path d="M24.36 14.8132C25.9973 16.8689 25.999 19.7433 24.3666 21.8006L23.4921 22.9031C22.9294 23.6135 23.0475 24.6455 23.7579 25.2082C24.0598 25.4477 24.4191 25.5642 24.7767 25.5642C25.2607 25.5642 25.7398 25.3509 26.063 24.9441L26.9374 23.8416C29.5263 20.58 29.523 16.0273 26.9276 12.769L26.0744 11.6977C24.821 10.1243 24.8194 7.92585 26.0695 6.35085C26.6323 5.64046 26.5141 4.60851 25.8037 4.04578C25.0934 3.48304 24.0614 3.60117 23.4987 4.31156C21.2937 7.09078 21.2969 10.9692 23.5069 13.7435L24.36 14.8132Z" fill="#FF699F"/>
<path d="M23.4954 28.7651C23.0639 28.7651 22.6406 28.9407 22.3354 29.2458C22.0303 29.5526 21.8547 29.9743 21.8547 30.4058C21.8547 30.8372 22.0303 31.2605 22.3354 31.5673C22.6406 31.8725 23.0639 32.0464 23.4954 32.0464C23.9268 32.0464 24.3501 31.8725 24.6553 31.5673C24.9621 31.2605 25.136 30.8389 25.136 30.4058C25.136 29.9743 24.9621 29.551 24.6553 29.2458C24.3501 28.9407 23.9268 28.7651 23.4954 28.7651Z" fill="#FF699F"/>
<path d="M53.3039 63.3544C58.2143 58.3997 61.0313 51.573 61.0313 44.625C61.0313 43.7194 60.2963 42.9844 59.3907 42.9844C58.485 42.9844 57.75 43.7194 57.75 44.625C57.75 50.715 55.2792 56.7 50.9726 61.0444C50.3344 61.6875 50.3393 62.726 50.9824 63.3642C51.3024 63.6809 51.7191 63.84 52.1374 63.84C52.5607 63.84 52.9824 63.6776 53.3039 63.3544Z" fill="#FF699F"/>
<path d="M46.7513 67.9661C47.0236 67.9661 47.3009 67.8972 47.5552 67.7544L47.5929 67.7331C48.382 67.2885 48.661 66.2877 48.2163 65.4986C47.7717 64.7094 46.7709 64.4305 45.9818 64.8751L45.9441 64.8965C45.1549 65.3411 44.876 66.3419 45.3206 67.131C45.6225 67.6658 46.177 67.9661 46.7513 67.9661Z" fill="#FF699F"/>
</svg>
