<svg width="82" height="74" viewBox="0 0 82 74" fill="none" xmlns="http://www.w3.org/2000/svg">
<path d="M55.41 11.26C55.41 10.37 54.69 9.65002 53.81 9.65002C52.93 9.65002 52.21 10.37 52.21 11.26C52.21 12.15 52.93 12.87 53.81 12.87C54.69 12.87 55.41 12.15 55.41 11.26Z" fill="#FF699F"/>
<path d="M60.66 0.5C60.36 0.18 59.94 0 59.5 0H22.5C22.06 0 21.64 0.18 21.34 0.5C21.04 0.82 20.88 1.25 20.9 1.69C21.88 19.62 13.98 30.01 12.13 36.53C8.78998 48.28 14.24 63.45 21.88 73.37C22.18 73.76 22.65 73.99 23.15 73.99H58.85C59.35 73.99 59.81 73.76 60.12 73.37C67.39 63.93 73.09 48.13 69.86 36.54C68.04 30 60.11 19.71 61.1 1.7C61.12 1.26 60.96 0.82 60.66 0.5ZM63.78 30.32C63.97 30.73 64.17 31.13 64.36 31.52C65.11 33.08 65.78 34.48 66.32 35.98C57.16 39.44 48.54 46.92 41 52.68C33.43 46.9 24.83 39.44 15.68 35.98C16.22 34.48 16.89 33.08 17.64 31.53C17.83 31.14 18.02 30.74 18.22 30.33C25.22 33.65 33.06 35.4 41 35.4C48.94 35.39 56.78 33.64 63.78 30.32ZM14.81 39.09C23.48 42.43 31.7 49.64 39.4 55.5V70.79H23.94C15.7 59.71 13.23 47.14 14.81 39.09ZM58.06 70.78H42.6V55.5C50.35 49.6 58.52 42.44 67.16 39.1C69.07 49.26 64.1 62.57 58.06 70.78ZM62.07 26.41C62.2 26.73 62.33 27.06 62.47 27.39C55.88 30.53 48.49 32.18 41 32.18C33.51 32.18 26.12 30.53 19.53 27.39C19.67 27.06 19.8 26.74 19.93 26.41C22.93 18.77 24.36 10.98 24.17 3.22H57.83C57.64 10.97 59.07 18.77 62.07 26.41Z" fill="#FF699F"/>
<path d="M55.98 17.33C55.79 16.46 54.94 15.91 54.08 16.1C53.22 16.29 52.67 17.14 52.85 18.01C53.33 20.26 53.95 22.55 54.69 24.8C54.97 25.64 55.87 26.1 56.71 25.83C57.55 25.55 58.01 24.64 57.73 23.8C57.03 21.65 56.44 19.47 55.98 17.33Z" fill="#FF699F"/>
<path d="M80.4 12.87H70.49L74.16 9.18C74.78 8.55 74.78 7.53 74.16 6.91C73.54 6.28 72.52 6.28 71.9 6.91L65.49 13.34C64.87 13.97 64.87 14.99 65.49 15.61L71.9 22.04C72.52 22.67 73.54 22.67 74.16 22.04C74.78 21.41 74.78 20.39 74.16 19.77L70.49 16.08H80.4C81.28 16.08 82 15.36 82 14.47C82 13.59 81.28 12.87 80.4 12.87Z" fill="#FF699F"/>
<path d="M1.6 16.09H11.51L7.84 19.78C7.22 20.41 7.22 21.43 7.84 22.05C8.46 22.68 9.48 22.68 10.1 22.05L16.51 15.62C17.13 14.99 17.13 13.97 16.51 13.35L10.1 6.91C9.48 6.28 8.46 6.28 7.84 6.91C7.22 7.54 7.22 8.56 7.84 9.18L11.51 12.87H1.6C0.72 12.87 0 13.59 0 14.48C0 15.37 0.72 16.09 1.6 16.09Z" fill="#FF699F"/>
</svg>
