<svg width="67" height="63" viewBox="0 0 67 63" fill="none" xmlns="http://www.w3.org/2000/svg">
<path d="M49.35 59.17C48.66 59.17 47.96 59 47.32 58.67L34.4 51.88C34.15 51.75 33.84 51.75 33.59 51.88L20.67 58.67C19.19 59.45 17.44 59.32 16.09 58.34C14.74 57.36 14.08 55.73 14.36 54.08L16.83 39.7C16.88 39.42 16.78 39.13 16.58 38.93L6.12998 28.75C4.93998 27.59 4.50998 25.88 5.02998 24.29C5.54998 22.7 6.88998 21.57 8.53998 21.33L22.98 19.23C23.26 19.19 23.51 19.01 23.64 18.75L30.1 5.66999C30.84 4.16999 32.33 3.23999 34 3.23999C35.67 3.23999 37.16 4.16999 37.9 5.66999L44.36 18.75C44.49 19.01 44.73 19.19 45.01 19.23L59.45 21.33C61.1 21.57 62.45 22.71 62.96 24.29C63.48 25.88 63.05 27.59 61.86 28.75L51.42 38.93C51.22 39.13 51.12 39.42 51.17 39.7L53.64 54.08C53.92 55.72 53.26 57.35 51.91 58.34C51.14 58.89 50.25 59.17 49.35 59.17ZM34 48.3C34.7 48.3 35.39 48.47 36.03 48.8L48.95 55.59C49.38 55.82 49.74 55.62 49.87 55.52C50 55.42 50.3 55.15 50.22 54.67L47.75 40.29C47.51 38.88 47.98 37.44 49 36.44L59.45 26.26C59.8 25.92 59.72 25.52 59.67 25.37C59.62 25.22 59.45 24.85 58.97 24.78L44.53 22.68C43.11 22.47 41.89 21.58 41.25 20.3L34.78 7.20999C34.56 6.76999 34.16 6.71999 34 6.71999C33.84 6.71999 33.44 6.76999 33.22 7.19999L26.76 20.28C26.13 21.56 24.9 22.45 23.48 22.66L9.03998 24.76C8.55998 24.83 8.38998 25.2 8.33998 25.35C8.28998 25.5 8.20998 25.9 8.55998 26.24L19.01 36.42C20.04 37.42 20.5 38.86 20.26 40.27L17.79 54.65C17.71 55.13 18.01 55.41 18.14 55.5C18.27 55.6 18.62 55.79 19.06 55.57L31.98 48.78C32.61 48.46 33.3 48.3 34 48.3Z" fill="#FF699F"/>
<path d="M51.47 6.03005C51.12 6.03005 50.76 5.92005 50.45 5.70005C49.67 5.14005 49.5 4.05005 50.06 3.27005L51.91 0.730048C52.47 -0.0499524 53.56 -0.219952 54.34 0.340048C55.12 0.900048 55.29 1.99005 54.73 2.77005L52.88 5.31005C52.54 5.79005 52 6.03005 51.47 6.03005Z" fill="#FF699F"/>
<path d="M16.53 6.02004C15.99 6.02004 15.46 5.77004 15.12 5.30004L13.27 2.76004C12.71 1.98004 12.88 0.890038 13.66 0.330038C14.44 -0.229962 15.53 -0.0599622 16.09 0.720038L17.94 3.26004C18.5 4.04004 18.33 5.13004 17.55 5.69004C17.24 5.92004 16.88 6.02004 16.53 6.02004Z" fill="#FF699F"/>
<path d="M2.73998 40.22C2.00998 40.22 1.31998 39.75 1.07998 39.02C0.779984 38.11 1.27998 37.12 2.19998 36.83L5.18998 35.86C6.09998 35.56 7.08998 36.06 7.37998 36.98C7.67998 37.89 7.17998 38.88 6.25998 39.17L3.26998 40.14C3.09998 40.19 2.91998 40.22 2.73998 40.22Z" fill="#FF699F"/>
<path d="M34 62.92C33.04 62.92 32.26 62.14 32.26 61.18V58.0401C32.26 57.0801 33.04 56.3 34 56.3C34.96 56.3 35.74 57.0801 35.74 58.0401V61.18C35.74 62.14 34.96 62.92 34 62.92Z" fill="#FF699F"/>
<path d="M65.26 40.2201C65.08 40.2201 64.9 40.1901 64.72 40.1301L61.73 39.1601C60.82 38.8601 60.31 37.8801 60.61 36.9701C60.91 36.0601 61.89 35.5501 62.8 35.8501L65.79 36.8201C66.7 37.1201 67.21 38.1001 66.91 39.0101C66.67 39.7501 65.99 40.2201 65.26 40.2201Z" fill="#FF699F"/>
</svg>
