<svg width="70" height="63" viewBox="0 0 70 63" fill="none" xmlns="http://www.w3.org/2000/svg">
<path d="M63.9259 5.47694L17.513 0.0654395C15.7119 -0.196866 13.8863 0.342781 12.4969 1.54905C11.1074 2.65508 10.2174 4.29406 10.0319 6.08843L9.18258 13.2459H6.54678C2.80622 13.2459 0.00120653 16.6508 0.00120653 20.4901V56.1904C-0.0931616 59.8526 2.72161 62.9 6.28808 62.9969C6.37431 62.9986 6.46054 63.0003 6.54515 62.9986H53.2118C56.9524 62.9986 60.3529 60.0314 60.3529 56.1904V54.7936C61.513 54.5631 62.6129 54.0886 63.5826 53.3969C64.959 52.2057 65.8425 50.5199 66.0475 48.6838L69.9573 13.2459C70.3592 9.39648 67.6681 5.93305 63.9259 5.47694ZM6.54678 16.7377H53.2135C55.2115 16.8229 56.8255 18.4418 56.954 20.4918V35.1558L38.4237 46.2412C36.8324 47.2085 34.8182 47.0331 33.4092 45.8051L24.0586 37.3378C21.3788 34.9737 17.4609 34.8284 14.6234 36.9886L3.40334 45.369V20.4918C3.40171 18.5705 4.67731 16.7377 6.54678 16.7377ZM53.2151 59.5084H6.54678C4.85791 59.5586 3.44727 58.1936 3.39846 56.4594C3.39521 56.3691 3.39683 56.2806 3.40171 56.192V49.733L16.5775 39.7821C18.1606 38.5341 20.3896 38.6443 21.8474 40.0444L31.1134 48.4248C32.5208 49.6378 34.291 50.3161 36.1279 50.3445C37.5646 50.3629 38.9769 49.9702 40.2085 49.21L56.954 39.2592V56.1937C56.954 58.1117 55.0846 59.5084 53.2151 59.5084ZM66.56 12.8098L62.564 48.2477C62.5706 49.1666 62.1622 50.0371 61.4593 50.6051C61.1192 50.9543 60.3545 51.1281 60.3545 51.3035V20.4901C60.2211 16.5138 57.0874 13.3361 53.2135 13.2459H12.5831L13.3478 6.43761C13.5138 5.55547 13.9628 4.75686 14.6234 4.16876C15.3686 3.63914 16.27 3.39354 17.173 3.47039L63.4996 8.96878C65.3691 9.15089 66.7406 10.855 66.5633 12.7747C66.5633 12.7864 66.5617 12.7981 66.56 12.8098Z" fill="#FF699F"/>
</svg>
