<svg width="82" height="69" viewBox="0 0 82 69" fill="none" xmlns="http://www.w3.org/2000/svg">
<path d="M53.736 27.5164C53.03 27.5164 52.386 27.0491 52.192 26.3412C51.962 25.4941 52.466 24.6192 53.32 24.3905L53.384 24.3726C54.238 24.1499 55.114 24.659 55.336 25.51C55.56 26.3591 55.048 27.2281 54.194 27.4508L54.154 27.4607C54.014 27.4985 53.874 27.5164 53.736 27.5164Z" fill="#FF699F"/>
<path d="M64.514 42.788C63.754 42.788 63.004 42.5892 62.326 42.2014C61.31 41.6188 60.584 40.6762 60.28 39.5508C60.052 38.7017 60.558 37.8307 61.412 37.6021C62.266 37.3734 63.142 37.8785 63.372 38.7275C63.454 39.0338 63.652 39.2883 63.926 39.4454C64.202 39.6045 64.522 39.6442 64.83 39.5627C65.138 39.4812 65.394 39.2863 65.552 39.0119C65.712 38.7375 65.754 38.4193 65.67 38.1131C65.442 37.264 65.948 36.3931 66.802 36.1644C67.656 35.9357 68.532 36.4408 68.762 37.2899C69.066 38.4154 68.91 39.5925 68.322 40.6027C67.736 41.6128 66.79 42.3346 65.656 42.6369C65.28 42.7383 64.896 42.788 64.514 42.788Z" fill="#FF699F"/>
<path d="M50.674 46.4746C49.914 46.4746 49.162 46.2757 48.486 45.888C47.47 45.3053 46.744 44.3648 46.44 43.2373C46.212 42.3883 46.718 41.5173 47.572 41.2886C48.426 41.062 49.302 41.565 49.532 42.4141C49.614 42.7203 49.812 42.9749 50.086 43.132C50.362 43.291 50.682 43.3328 50.988 43.2493C51.296 43.1677 51.552 42.9729 51.71 42.6985C51.87 42.4241 51.912 42.1059 51.828 41.7997C51.6 40.9526 52.106 40.0796 52.96 39.851C53.814 39.6243 54.69 40.1274 54.92 40.9765C55.224 42.1019 55.068 43.2791 54.48 44.2892C53.894 45.2994 52.948 46.0212 51.814 46.3234C51.44 46.4249 51.056 46.4746 50.674 46.4746Z" fill="#FF699F"/>
<path d="M60.3099 56.8982C59.1699 56.8982 58.0439 56.5999 57.0319 56.0193C55.5099 55.1463 54.4219 53.7365 53.9679 52.0483C53.7379 51.1992 54.2459 50.3263 55.0999 50.0996C55.9539 49.8729 56.8299 50.376 57.0599 51.225C57.2939 52.092 57.8519 52.8158 58.6339 53.2632C59.4159 53.7106 60.3239 53.8319 61.1959 53.5993C62.9939 53.1201 64.0659 51.2748 63.5839 49.4871C63.3559 48.638 63.8619 47.7671 64.7159 47.5384C65.5699 47.3097 66.4479 47.8148 66.6759 48.6639C67.6159 52.1477 65.5299 55.7409 62.0259 56.6715C61.4579 56.8246 60.8819 56.8982 60.3099 56.8982Z" fill="#FF699F"/>
<path d="M81.144 40.358C78.608 30.9486 70.336 24.2355 60.562 23.6529C59.678 23.6012 58.922 24.2693 58.87 25.1462C58.818 26.0251 59.49 26.7768 60.372 26.8285C68.768 27.3276 75.876 33.0961 78.054 41.1813C80.84 51.5154 74.648 62.1756 64.254 64.9455C62.592 65.3889 60.908 65.6017 59.24 65.6017C52.708 65.6017 46.438 62.3267 42.806 56.7371C44.48 53.5913 45.432 50.0081 45.432 46.2081C45.432 42.4082 44.482 38.8249 42.808 35.6792C44.34 33.3208 46.388 31.2966 48.758 29.8052C49.504 29.3359 49.726 28.3536 49.254 27.6099C48.782 26.8682 47.792 26.6475 47.046 27.1168C44.694 28.5962 42.616 30.525 40.95 32.7581C36.806 27.2182 30.174 23.623 22.714 23.623C10.19 23.625 0 33.7543 0 46.2081C0 58.6619 10.19 68.7932 22.716 68.7932C30.18 68.7932 36.812 65.1961 40.956 59.6542C43.398 62.9153 46.728 65.5142 50.53 67.0771C53.312 68.2225 56.23 68.7972 59.17 68.7972C61.142 68.7972 63.124 68.5387 65.08 68.0157C77.18 64.7964 84.386 52.3863 81.144 40.358ZM22.716 65.6116C11.954 65.6116 3.2 56.9081 3.2 46.2101C3.2 35.5121 11.954 26.8066 22.716 26.8066C33.478 26.8066 42.23 35.5101 42.23 46.2101C42.23 56.9081 33.476 65.6116 22.716 65.6116Z" fill="#FF699F"/>
<path d="M18.342 44.4264C17.458 44.4264 16.742 43.7146 16.742 42.8357C16.742 42.1834 16.208 41.6525 15.552 41.6525C14.896 41.6525 14.362 42.1834 14.362 42.8357C14.362 43.7146 13.646 44.4264 12.762 44.4264C11.878 44.4264 11.162 43.7146 11.162 42.8357C11.162 40.4296 13.132 38.4709 15.552 38.4709C17.972 38.4709 19.942 40.4296 19.942 42.8357C19.942 43.7126 19.224 44.4264 18.342 44.4264Z" fill="#FF699F"/>
<path d="M32.67 44.4264C31.786 44.4264 31.07 43.7146 31.07 42.8357C31.07 42.1834 30.536 41.6525 29.88 41.6525C29.224 41.6525 28.69 42.1834 28.69 42.8357C28.69 43.7146 27.974 44.4264 27.09 44.4264C26.206 44.4264 25.49 43.7146 25.49 42.8357C25.49 40.4296 27.46 38.4709 29.88 38.4709C32.302 38.4709 34.27 40.4296 34.27 42.8357C34.27 43.7126 33.554 44.4264 32.67 44.4264Z" fill="#FF699F"/>
<path d="M22.716 57.0474C19.09 57.0474 16.14 54.1144 16.14 50.5073C16.14 49.6284 16.856 48.9165 17.74 48.9165C18.624 48.9165 19.34 49.6284 19.34 50.5073C19.34 52.3586 20.854 53.8658 22.716 53.8658C24.578 53.8658 26.092 52.3605 26.092 50.5073C26.092 49.6284 26.808 48.9165 27.692 48.9165C28.576 48.9165 29.292 49.6284 29.292 50.5073C29.292 54.1144 26.342 57.0474 22.716 57.0474Z" fill="#FF699F"/>
<path d="M40.986 10.8571C40.102 10.8571 39.386 10.1432 39.386 9.26633V1.67037C39.386 0.791463 40.102 0.0795898 40.986 0.0795898C41.87 0.0795898 42.586 0.791463 42.586 1.67037V9.26633C42.586 10.1432 41.87 10.8571 40.986 10.8571Z" fill="#FF699F"/>
<path d="M40.986 17.5741C40.564 17.5741 40.154 17.4031 39.854 17.1088C39.556 16.8145 39.386 16.4029 39.386 15.9834C39.386 15.5658 39.556 15.1542 39.854 14.8579C40.152 14.5636 40.564 14.3926 40.986 14.3926C41.408 14.3926 41.818 14.5636 42.118 14.8579C42.416 15.1542 42.586 15.5658 42.586 15.9834C42.586 16.4029 42.416 16.8125 42.118 17.1088C41.818 17.4031 41.408 17.5741 40.986 17.5741Z" fill="#FF699F"/>
<path d="M32.732 14.8161C32.322 14.8161 31.914 14.661 31.6 14.3508L26.296 9.07733C25.672 8.45693 25.672 7.44877 26.296 6.82837C26.92 6.20597 27.934 6.20597 28.56 6.82837L33.864 12.1018C34.488 12.7222 34.488 13.7304 33.864 14.3508C33.552 14.661 33.142 14.8161 32.732 14.8161Z" fill="#FF699F"/>
<path d="M49.338 14.6768C48.928 14.6768 48.52 14.5217 48.208 14.2115C47.582 13.5891 47.582 12.583 48.206 11.9606L53.362 6.83031C53.988 6.2099 55 6.20791 55.626 6.83031C56.252 7.4527 56.252 8.45887 55.626 9.08126L50.47 14.2115C50.158 14.5217 49.748 14.6768 49.338 14.6768Z" fill="#FF699F"/>
</svg>
